<svg xmlns="http://www.w3.org/2000/svg" viewBox="0 0 512 512">
  <rect width="512" height="512" rx="96" fill="#ffffff"/>

<!-- The file icon -->
  <g transform="translate(256,256) scale(1.46) translate(-256,-256)">
    <g transform="translate(41,26)">
      <path d="M110 114
               Q110 90 134 90
               H244
               L320 166
               V346
               Q320 370 296 370
               H134
               Q110 370 110 346
               Z"
            fill="#EEF4FF" stroke="#1F2937" stroke-width="14" stroke-linejoin="round"/>
      <path d="M244 90
               V142
               Q244 166 268 166
               H320"
            fill="none" stroke="#1F2937" stroke-width="14"/>
      <path d="M244 90 L320 166 L268 166 Q244 166 244 142 Z"
            fill="#DCEBFF"/>
      <text x="138" y="200" font-family="Arial, Helvetica, sans-serif" font-size="84" font-weight="700" fill="#2563EB">{}</text>
      <text x="135" y="260" font-family="Arial, Helvetica, sans-serif" font-size="50" font-weight="600" fill="#64748B">tex</text>
    </g>

<!-- The checkmark -->
    <circle cx="363" cy="311" r="54" fill="#16A34A"/>
    <path d="M337 312 L357 332 L393 296"
          fill="none" stroke="#ffffff" stroke-width="15"
          stroke-linecap="round" stroke-linejoin="round"/>
  </g>
</svg>
